<svg id="__TEMP__SVG__" xmlns="http://www.w3.org/2000/svg" width="20" height="22" viewBox="0 0 22 22">
    <path id="Path_23" data-name="Path 23" d="M0,2.75A2.75,2.75,0,0,1,2.75,0h16.5A2.75,2.75,0,0,1,22,2.75Z" fill="#717171"/>
    <path id="Path_24" data-name="Path 24" d="M0,4.125H22V19.25A2.75,2.75,0,0,1,19.25,22H2.75A2.75,2.75,0,0,1,0,19.25Zm8.938,5.5A1.375,1.375,0,1,0,7.563,8.25,1.375,1.375,0,0,0,8.938,9.625Zm5.5-1.375a1.375,1.375,0,1,1-1.375-1.375A1.375,1.375,0,0,1,14.438,8.25Zm2.75,1.375A1.375,1.375,0,1,0,15.813,8.25,1.375,1.375,0,0,0,17.188,9.625Zm-11,2.75A1.375,1.375,0,1,1,4.813,11,1.375,1.375,0,0,1,6.188,12.375Zm2.75,1.375a1.375,1.375,0,1,0-1.375-1.375A1.375,1.375,0,0,0,8.938,13.75Zm5.5-1.375A1.375,1.375,0,1,1,13.063,11,1.375,1.375,0,0,1,14.438,12.375Zm2.75,1.375a1.375,1.375,0,1,0-1.375-1.375A1.375,1.375,0,0,0,17.188,13.75Zm-11,2.75a1.375,1.375,0,1,1-1.375-1.375A1.375,1.375,0,0,1,6.188,16.5Zm2.75,1.375A1.375,1.375,0,1,0,7.563,16.5,1.375,1.375,0,0,0,8.938,17.875Zm5.5-1.375a1.375,1.375,0,1,1-1.375-1.375A1.375,1.375,0,0,1,14.438,16.5Z" fill="#717171" fill-rule="evenodd"/>
</svg>